<svg id="Layer_1" data-name="Layer 1" xmlns="http://www.w3.org/2000/svg" viewBox="0 0 43 49.39"><defs><style>.cls-1{fill:#c7a567;}</style></defs><title>angle-left</title><g id="_Group_" data-name="&lt;Group&gt;"><path class="cls-1" d="M791.5,1581.75a1.54,1.54,0,0,1,0,2.28l-2.51,2.47a1.59,1.59,0,0,1-2.31,0l-23.38-23.06a1.54,1.54,0,0,1,0-2.28l11.44-11.28h9.63l-12.59,12.42Z" transform="translate(-749 -1537.61)"/><path class="cls-1" d="M777.7,1581.75a1.54,1.54,0,0,1,0,2.28l-2.51,2.47a1.59,1.59,0,0,1-2.31,0l-23.38-23.06a1.54,1.54,0,0,1,0-2.28l11.44-11.28h9.63L758,1562.3Z" transform="translate(-749 -1537.61)"/><path class="cls-1" d="M791.5,1540.58a1.54,1.54,0,0,1,0,2.28l-2.13,2.1h-9.63l6.95-6.85a1.59,1.59,0,0,1,2.31,0Z" transform="translate(-749 -1537.61)"/><path class="cls-1" d="M777.7,1540.58a1.54,1.54,0,0,1,0,2.28l-2.13,2.1h-9.63l6.95-6.85a1.59,1.59,0,0,1,2.31,0Z" transform="translate(-749 -1537.61)"/></g></svg>
