<svg id="Layer_1" data-name="Layer 1" xmlns="http://www.w3.org/2000/svg" viewBox="0 0 50.99 50.04"><defs><style>.cls-1{fill:#c7a567;}</style></defs><title>close-button</title><g id="_Group_" data-name=" Group "><g id="_Group_2" data-name=" Group 2"><path class="cls-1" d="M54.5,49.75a1.49,1.49,0,0,1,.12,2.1L54.5,52,52,54.49a1.64,1.64,0,0,1-1.2.51,1.83,1.83,0,0,1-1.2-.51L26.27,31.16a1.49,1.49,0,0,1-.12-2.1l.12-.12L37.64,17.53h9.58L34.65,30Z" transform="translate(-4 -4.96)"/><path class="cls-1" d="M4.5,49.75a1.49,1.49,0,0,0-.12,2.1L4.5,52,7,54.49A1.64,1.64,0,0,0,8.2,55a1.83,1.83,0,0,0,1.2-.51L32.73,31.16a1.49,1.49,0,0,0,.12-2.1l-.12-.12L21.36,17.53H11.78L24.35,30Z" transform="translate(-4 -4.96)"/></g><g id="_Group_3" data-name=" Group 3"><path class="cls-1" d="M54.5,8.13a1.49,1.49,0,0,1,.12,2.1l-.12.12-2.1,2.12H42.83l6.88-7A1.64,1.64,0,0,1,50.91,5a1.83,1.83,0,0,1,1.2.51Z" transform="translate(-4 -4.96)"/><path class="cls-1" d="M5.56,8.13a1.49,1.49,0,0,0-.12,2.1l.12.12,2.1,2.12h9.58l-6.88-7A1.64,1.64,0,0,0,9.16,5,1.83,1.83,0,0,0,8,5.47Z" transform="translate(-4 -4.96)"/></g></g></svg>